<?xml version="1.0" standalone="no"?><!DOCTYPE svg PUBLIC "-//W3C//DTD SVG 1.1//EN" "http://www.w3.org/Graphics/SVG/1.1/DTD/svg11.dtd"><svg class="icon" height="512" viewBox="0 0 1024 1024" version="1.1" xmlns="http://www.w3.org/2000/svg"><path d="M512 1.022977c-282.46953 0-511.488511 229.082917-511.488511 511.552448 0 282.533467 229.018981 511.424575 511.488511 511.424575 282.533467 0 511.488511-228.891109 511.488511-511.424575C1023.488511 230.041958 794.533467 1.022977 512 1.022977zM512.575425 1007.120879c-151.912088 0-287.904096-69.050949-379.012987-177.678322 16.495504-129.278721 114.701299-236.435564 247.240759-278.697303-64.191808-42.453546-106.773227-115.98002-106.773227-199.480519 0-131.132867 104.983017-237.842158 233.942058-237.842158s233.942058 106.709291 233.942058 237.842158c0 83.628372-42.773227 157.282717-107.156843 199.736264 135.8002 43.604396 235.348651 155.300699 247.624376 289.054945C791.464535 942.545455 659.5005 1007.120879 512.575425 1007.120879z" /></svg>